HIERARCHY
ROOT Hips
{
	OFFSET 0.000000 0.000000 0.000000 
	CHANNELS 6 Xposition Yposition Zposition Zrotation Yrotation Xrotation
	JOINT LeftUpLeg
	{
		OFFSET 1.363060 -1.794630 0.839290 
		CHANNELS 3 Zrotation Yrotation Xrotation
		JOINT LeftLeg
		{
			OFFSET 2.448110 -6.726130 0.000000 
			CHANNELS 3 Zrotation Yrotation Xrotation
			JOINT LeftFoot
			{
				OFFSET 2.562200 -7.039590 0.000000 
				CHANNELS 3 Zrotation Yrotation Xrotation
				JOINT LeftToeBase
				{
					OFFSET 0.157640 -0.433110 2.322550 
					CHANNELS 3 Zrotation Yrotation Xrotation
					End Site
					{
						OFFSET 0.000000 0.000000 0.000000 
					}
				}
			}
		}
	}
	JOINT RightUpLeg
	{
		OFFSET -1.305520 -1.794630 0.839290 
		CHANNELS 3 Zrotation Yrotation Xrotation
		JOINT RightLeg
		{
			OFFSET -2.542530 -6.985550 0.000000 
			CHANNELS 3 Zrotation Yrotation Xrotation
			JOINT RightFoot
			{
				OFFSET -2.568260 -7.056230 0.000000 
				CHANNELS 3 Zrotation Yrotation Xrotation
				JOINT RightToeBase
				{
					OFFSET -0.164730 -0.452590 2.363150 
					CHANNELS 3 Zrotation Yrotation Xrotation
					End Site
					{
						OFFSET 0.000000 0.000000 0.000000 
					}
				}
			}
		}
	}
	JOINT Spine
	{
		OFFSET 0.028270 2.035590 -0.193380 
		CHANNELS 3 Zrotation Yrotation Xrotation
		JOINT Spine1
		{
			OFFSET 0.056720 2.048850 -0.042750 
			CHANNELS 3 Zrotation Yrotation Xrotation
			JOINT Neck1
			{
				OFFSET -0.054170 1.746240 0.172020 
				CHANNELS 3 Zrotation Yrotation Xrotation
				JOINT Head
				{
					OFFSET 0.104070 1.761360 -0.123970 
					CHANNELS 3 Zrotation Yrotation Xrotation
					End Site
					{
						OFFSET 0.000000 0.000000 0.000000 
					}
				}
			}
			JOINT LeftArm
			{
				OFFSET 3.362410 1.200890 -0.311210 
				CHANNELS 3 Zrotation Yrotation Xrotation
				JOINT LeftForeArm
				{
					OFFSET 4.983000 -0.000000 -0.000000 
					CHANNELS 3 Zrotation Yrotation Xrotation
					JOINT LeftHand
					{
						OFFSET 3.483560 -0.000000 -0.000000 
						CHANNELS 3 Zrotation Yrotation Xrotation
						JOINT LeftHandIndex1
						{
							OFFSET 0.715260 -0.000000 -0.000000 
							CHANNELS 3 Zrotation Yrotation Xrotation
							End Site
							{
								OFFSET 0.000000 0.000000 0.000000 
							}
						}
					}
				}
			}
			JOINT RightArm
			{
				OFFSET -3.136600 1.374050 -0.404650 
				CHANNELS 3 Zrotation Yrotation Xrotation
				JOINT RightForeArm
				{
					OFFSET -5.241900 -0.000000 -0.000000 
					CHANNELS 3 Zrotation Yrotation Xrotation
					JOINT RightHand
					{
						OFFSET -3.444170 -0.000000 -0.000000 
						CHANNELS 3 Zrotation Yrotation Xrotation
						JOINT RightHandIndex1
						{
							OFFSET -0.622530 -0.000000 -0.000000 
							CHANNELS 3 Zrotation Yrotation Xrotation
							End Site
							{
								OFFSET 0.000000 0.000000 0.000000 
							}
						}
					}
				}
			}
		}
	}
}
MOTION
Frames: 15
Frame Time: 0.041667
44.812179 17.794797 4.338089 -140.116367 -83.651803 148.233357 -10.866635 -9.830180 -3.347846 -0.362512 4.165813 10.246168 0.138124 1.443052 1.652109 0.265300 -3.313500 -9.152700 25.693263 4.597411 -4.689918 -0.189137 -5.110505 12.996822 1.913089 -13.133531 -7.425041 -0.911000 -6.082000 17.022400 1.313302 -1.430029 -5.425239 6.191040 -0.819918 -0.463529 1.911690 -9.927536 5.134413 2.100500 -5.382100 6.086000 -96.969759 -3.625355 14.549880 5.825642 -24.102028 -1.903588 1.968821 4.367491 28.813463 -7.125000 0.000000 0.000000 89.692392 4.142651 19.176311 -9.748983 21.124863 -1.761293 -0.708522 0.270624 12.228451 7.125000 0.000000 0.000000 
44.819946 17.794598 4.339284 -139.615530 -83.780100 147.707323 -10.925176 -9.946510 -3.360584 -0.359176 4.192194 10.318684 0.146417 1.392390 1.636349 0.249000 -3.210900 -8.866400 25.644075 4.536932 -4.712500 -0.189309 -5.112361 13.001739 1.923176 -13.186756 -7.469971 -0.912700 -6.087400 17.038100 1.298466 -1.436060 -5.408525 6.170242 -0.820718 -0.438950 1.884469 -9.961974 5.104977 2.084100 -5.398300 6.077100 -97.002462 -3.861506 15.365004 5.953664 -24.296192 -1.920472 1.823220 4.497014 27.836922 -7.125000 0.000000 0.000000 89.894062 4.338590 19.702619 -9.923586 21.395267 -1.806268 -0.719231 0.251889 11.432143 7.125000 0.000000 0.000000 
44.831398 17.793802 4.338885 -138.864318 -83.880117 146.973300 -10.895374 -9.941655 -3.490930 -0.358222 4.203082 10.352674 0.165465 1.291049 1.744486 0.254700 -3.247200 -8.967800 25.640927 4.560912 -4.782610 -0.190264 -5.121198 13.022979 1.947324 -13.311978 -7.530369 -0.909200 -6.076200 17.005800 1.290689 -1.444672 -5.403884 6.155563 -0.823139 -0.445476 1.888541 -10.007284 5.128630 2.076400 -5.419400 6.094700 -97.031778 -4.048025 16.347609 6.172975 -24.618323 -1.966511 1.712245 4.681098 26.617697 -7.125000 0.000000 0.000000 90.102963 4.524550 20.273557 -10.111496 21.681165 -1.862454 -0.726866 0.224735 10.724208 7.125000 0.000000 0.000000 
44.835580 17.792407 4.341275 -138.627320 -83.874677 146.720169 -10.891119 -9.939055 -3.429604 -0.363687 4.169906 10.260905 0.162479 1.310761 1.749526 0.246700 -3.196400 -8.826100 25.653022 4.536931 -4.793178 -0.191227 -5.127361 13.038604 1.942011 -13.288028 -7.564655 -0.924900 -6.126900 17.152900 1.277009 -1.395620 -5.376646 6.105995 -0.798074 -0.371598 1.923629 -10.051086 5.098330 2.082600 -5.435500 6.085200 -97.069343 -4.342957 16.713942 6.419930 -24.930765 -2.035122 1.317984 5.096447 26.997872 -7.125000 0.000000 0.000000 90.304729 4.720408 20.915082 -10.265125 21.937888 -1.940738 -0.715765 0.239875 9.859056 7.125000 0.000000 0.000000 
44.846435 17.793503 4.341474 -137.569587 -83.972093 145.610565 -10.874744 -10.001613 -3.442570 -0.360021 4.193737 10.331193 0.178882 1.212278 1.746346 0.236700 -3.131000 -8.643700 25.673519 4.460993 -4.798622 -0.191129 -5.130599 13.044712 1.950973 -13.338571 -7.642132 -0.937300 -6.166800 17.269300 1.275374 -1.412554 -5.357343 6.094955 -0.804992 -0.378322 1.912385 -10.113716 5.061409 2.068400 -5.464400 6.079300 -97.070806 -4.546071 17.784868 6.629091 -25.228059 -2.076383 1.219008 5.200903 25.790133 -7.125000 0.000000 0.000000 90.511183 4.979501 21.467413 -10.422604 22.173418 -1.994209 -0.718911 0.221705 9.379148 7.125000 0.000000 0.000000 
44.856393 17.793105 4.342371 -136.529266 -83.997983 144.577398 -10.779486 -10.039655 -3.531764 -0.354833 4.222699 10.419191 0.208137 1.014292 1.490449 0.120700 -2.240000 -6.169400 25.758772 4.565255 -4.874724 -0.199308 -5.175563 13.164123 1.972547 -13.454875 -7.750864 -0.944500 -6.189800 17.336100 1.269905 -1.395026 -5.346439 6.088752 -0.791250 -0.363906 1.553733 -10.229140 4.915615 1.907900 -5.535400 5.995500 -97.193005 -4.811981 18.682415 6.629341 -25.226077 -1.988274 1.803199 3.775779 25.091851 -7.125000 0.000000 0.000000 90.689542 5.119758 22.129675 -10.673617 22.561886 -2.078762 -0.724477 0.199265 8.952560 7.125000 0.000000 0.000000 
44.866949 17.792905 4.343267 -135.571071 -84.100780 143.619506 -10.765291 -10.115610 -3.602587 -0.351800 4.244405 10.483125 0.223842 0.921712 1.499301 0.105900 -2.098300 -5.777400 25.738754 4.433409 -4.925717 -0.193509 -5.150392 13.089753 1.980487 -13.493523 -7.718521 -0.933300 -6.153800 17.231400 1.263583 -1.417023 -5.331832 6.070928 -0.799514 -0.352332 1.495645 -10.284162 4.870944 1.879000 -5.563600 5.982400 -97.248017 -5.112605 19.535164 6.740866 -25.407481 -2.008640 1.786347 3.834384 24.348335 -7.125000 0.000000 0.000000 90.877827 5.358799 22.867158 -10.808770 22.768393 -2.128688 -0.724126 0.198787 8.263733 7.125000 0.000000 0.000000 
44.876807 17.792009 4.343964 -134.665811 -84.171264 142.732922 -10.728756 -10.185711 -3.683607 -0.348281 4.267635 10.551240 0.236835 0.843181 1.490161 0.098800 -2.027000 -5.580300 25.777961 4.575733 -5.001251 -0.201960 -5.197764 13.217726 2.009625 -13.651292 -7.903769 -0.952100 -6.213700 17.405800 1.254800 -1.428338 -5.319843 6.032133 -0.803785 -0.335497 1.545597 -10.329118 4.809690 1.893800 -5.579300 5.969200 -97.266957 -5.416206 20.451770 6.869694 -25.598423 -2.029218 1.743214 3.905455 23.661790 -7.125000 0.000000 0.000000 91.084476 5.605282 23.556884 -10.957933 22.995028 -2.187606 -0.722870 0.193123 7.896601 7.125000 0.000000 0.000000 
44.879596 17.789121 4.347549 -135.239037 -84.147523 143.332660 -10.771250 -10.165864 -3.725028 -0.350212 4.259743 10.524573 0.230492 0.880314 1.462639 0.092600 -1.962500 -5.402000 25.725259 4.578674 -5.062988 -0.202956 -5.201199 13.228620 2.003385 -13.617565 -7.876049 -0.960400 -6.240000 17.482500 1.228189 -1.374891 -5.303040 5.971694 -0.775615 -0.266948 1.627714 -10.323331 4.793752 1.932000 -5.570300 5.971300 -97.352238 -5.770867 21.050522 6.906581 -25.673615 -2.031817 1.724614 3.923873 23.432743 -7.125000 0.000000 0.000000 91.294960 5.873984 24.149722 -11.056105 23.150937 -2.237057 -0.717397 0.197188 7.665255 7.125000 0.000000 0.000000 
44.892541 17.789320 4.346155 -133.813603 -84.259065 141.896617 -10.709040 -10.188587 -3.841573 -0.344741 4.293653 10.627406 0.261313 0.701112 1.526506 0.093200 -1.968900 -5.419800 25.742860 4.424137 -5.110036 -0.196044 -5.172609 13.143747 2.011530 -13.659248 -7.869807 -0.973900 -6.282400 17.606100 1.228374 -1.420292 -5.297964 5.986831 -0.793594 -0.309378 1.618209 -10.374194 4.682011 1.922400 -5.591500 5.928600 -97.463878 -6.173010 21.549577 6.903369 -25.705226 -2.029864 1.731079 3.930345 23.421038 -7.125000 0.000000 0.000000 91.500413 6.110674 24.997433 -11.250639 23.429415 -2.288973 -0.726703 0.176110 7.303697 7.125000 0.000000 0.000000 
44.901504 17.788823 4.347250 -133.268950 -84.281898 141.347278 -10.672902 -10.244103 -3.883629 -0.341462 4.312889 10.683235 0.267914 0.658615 1.493732 0.081100 -1.837400 -5.056500 25.765342 4.426014 -5.151555 -0.196362 -5.177377 13.153709 2.020018 -13.704908 -7.908006 -0.979200 -6.299200 17.655100 1.216448 -1.397734 -5.286086 5.994699 -0.776628 -0.306217 1.662170 -10.400864 4.584455 1.947000 -5.599400 5.890100 -97.700173 -6.759901 21.679285 6.603872 -25.405132 -1.979862 1.853858 3.949723 23.955549 -7.125000 0.000000 0.000000 91.694178 6.364773 25.605543 -11.421232 23.681863 -2.355287 -0.726007 0.163112 7.297355 7.125000 0.000000 0.000000 
44.911362 17.788125 4.347449 -132.306092 -84.320209 140.407726 -10.604111 -10.246894 -3.942979 -0.344568 4.296431 10.644198 0.284750 0.564645 1.567024 0.084900 -1.879100 -5.171800 25.837098 4.602647 -5.237686 -0.206733 -5.235059 13.308919 2.053116 -13.884113 -8.114162 -0.999100 -6.360900 17.835300 1.214146 -1.435670 -5.280518 5.958420 -0.794319 -0.322987 1.750861 -10.410817 4.479656 1.991500 -5.597000 5.852000 -97.774660 -7.018319 22.385836 6.788798 -25.657512 -2.015152 1.827385 3.955254 23.839596 -7.125000 0.000000 0.000000 91.907037 6.604478 26.364304 -11.651095 24.011957 -2.426553 -0.732421 0.136320 7.473135 7.125000 0.000000 0.000000 
44.915744 17.785437 4.350636 -132.468258 -84.289111 140.622987 -10.591468 -10.277129 -4.010791 -0.344863 4.296929 10.642959 0.276394 0.611936 1.522578 0.082900 -1.857300 -5.111500 25.828351 4.650243 -5.326308 -0.209555 -5.248447 13.346288 2.046936 -13.853010 -8.115242 -1.003200 -6.373700 17.872600 1.198312 -1.386034 -5.271631 5.903224 -0.768505 -0.277903 1.789670 -10.449182 4.388328 2.003500 -5.609500 5.813600 -97.805615 -7.241073 23.342796 7.024101 -25.973321 -2.060514 1.809839 3.969640 23.492490 -7.125000 0.000000 0.000000 92.116525 6.840795 26.996709 -11.739627 24.151786 -2.476547 -0.726918 0.149853 7.085966 7.125000 0.000000 0.000000 
44.929187 17.787030 4.349142 -131.262395 -84.441147 139.403528 -10.602694 -10.309555 -4.106183 -0.342570 4.316120 10.703281 0.307947 0.431032 1.628116 0.085800 -1.889500 -5.200300 25.792957 4.573869 -5.384806 -0.208645 -5.249281 13.344787 2.066926 -13.958117 -8.201674 -1.023200 -6.435000 18.052000 1.194489 -1.437858 -5.259460 5.929566 -0.791876 -0.302641 1.859120 -10.483748 4.271343 2.028800 -5.618700 5.768600 -97.862396 -7.529799 24.176658 7.199856 -26.215915 -2.093469 1.803578 3.951021 23.293946 -7.125000 0.000000 0.000000 92.310255 7.046698 27.752199 -11.903811 24.396200 -2.554050 -0.721216 0.155268 6.601172 7.125000 0.000000 0.000000 
44.934963 17.785935 4.351134 -131.230295 -84.420352 139.427857 -10.563776 -10.315500 -4.156864 -0.346565 4.295289 10.644955 0.305883 0.445401 1.635061 0.075900 -1.777600 -4.891400 25.795085 4.601725 -5.485301 -0.211503 -5.263504 13.383223 2.064023 -13.945161 -8.216422 -1.025700 -6.442600 18.074200 1.182964 -1.415478 -5.248640 5.878310 -0.780560 -0.261237 1.977559 -10.499427 4.188725 2.081500 -5.617200 5.740800 -97.897265 -7.712116 25.066230 7.510872 -26.600504 -2.149131 1.747148 3.912876 23.035443 -7.125000 0.000000 0.000000 92.505862 7.247845 28.466725 -12.095180 24.677582 -2.629084 -0.721925 0.145472 6.511019 7.125000 0.000000 0.000000 
